<?xml version="1.0" encoding="utf-8"?>
<!-- Generator: Adobe Illustrator 24.0.2, SVG Export Plug-In . SVG Version: 6.00 Build 0)  -->
<svg version="1.1" id="Слой_1" xmlns="http://www.w3.org/2000/svg" xmlns:xlink="http://www.w3.org/1999/xlink" x="0px" y="0px"
	 viewBox="0 0 127.6 35.3" style="enable-background:new 0 0 127.6 35.3;" xml:space="preserve">
<style type="text/css">
	.st0{fill:#007ACC;}
	.st1{fill:#FFFFFF;}
</style>
<title>logoo</title>
<g id="Слой_2_1_">
	<g id="Layer_1">
		<path class="st0" d="M73.8,8.4C74.9,3.8,72.2,0,65.3,0H50.6l-5.5,22.4l3.2,5.5h10.5c6.9,0,12.2-3.2,13.6-8.8
			c0.7-2.9-0.1-4.9-1.9-5.9v-0.1C72.1,12.1,73.4,10.4,73.8,8.4z M64.8,18.9c-0.3,1.2-1.1,2.4-4.3,2.4h-6.7l1.2-4.8h6.7
			C64.8,16.5,65.1,17.7,64.8,18.9L64.8,18.9z M66.1,8.5c-0.2,0.9-0.9,2-3.8,2h-6l1-3.9h6C66.2,6.6,66.4,7.5,66.1,8.5z"/>
		<polygon class="st0" points="83.1,17.1 96.5,17.1 98.1,10.5 84.7,10.5 85.8,6.6 99,6.6 100.5,0 78.8,0 71.9,27.9 96.5,27.9 
			98.1,21.3 82.1,21.3 		"/>
		<polygon class="st0" points="102.4,0 100.8,6.6 108.9,6.6 103.6,27.9 112,27.9 117.3,6.6 125.9,6.6 127.6,0 		"/>
		<path class="st1" d="M8.8,27.9H0.3L4,13l0.8-2.3L2.6,13l-2.5,2.5L0,8.1L8.8,0h6.9L8.8,27.9z"/>
		<path class="st1" d="M39.5,16.3l-2.7-4.6L50,0H37.7l-5,4.8l0,0l-17,15.6l-8.1,7.5h11.6l8.7-7.8l2.9,5c1,1.3,2.4,2.8,8.4,2.8h7
			L39.5,16.3L39.5,16.3z"/>
		<path class="st1" d="M31.8,3.3L31.8,3.3c-1.5-2.2-4-3.4-6.6-3.3h-9.1l6.8,11.5L31.8,3.3z"/>
	</g>
</g>
<g>
	<path class="st1" d="M41.7,31.4h-2l-0.2,1.3l0.9,0c0.4,0,0.7,0.1,1,0.3s0.3,0.5,0.3,0.9c0,0.4-0.2,0.7-0.5,0.9s-0.7,0.4-1.1,0.4
		h-1.6l0.7-4.3h2.5L41.7,31.4z M39.4,33.2l-0.3,1.6l1,0c0.3,0,0.5-0.1,0.7-0.2c0.2-0.2,0.3-0.4,0.3-0.6c0-0.2,0-0.4-0.1-0.5
		c-0.1-0.1-0.3-0.2-0.5-0.2L39.4,33.2z"/>
	<path class="st1" d="M43.8,33.5l1.4-2.5h0.7l-2.1,3.6c-0.2,0.3-0.3,0.5-0.5,0.6c-0.2,0.1-0.4,0.2-0.6,0.2c-0.1,0-0.2,0-0.3,0
		l0.1-0.4l0.3,0c0.2,0,0.4-0.1,0.5-0.3l0.1-0.2l0.2-0.3L42.6,31h0.6L43.8,33.5z"/>
	<path class="st1" d="M47.2,33.3h-0.5l-0.3,1.9h-0.6l0.7-4.3h0.5l-0.3,1.9h0.4L49,31h0.7l-2,2.1l1.3,2.2h-0.6L47.2,33.3z"/>
	<path class="st1" d="M51,31l0.7,3.5l2-3.5h0.7l-0.7,4.3h-0.5l0.3-1.7l0.3-1.7l-1.9,3.4h-0.4l-0.8-3.5l-0.3,1.8l-0.3,1.6h-0.6
		l0.7-4.3H51z"/>
	<path class="st1" d="M57.4,33.3h-1.8l-0.3,1.5h2.1l-0.1,0.5h-2.6l0.7-4.3H58l-0.1,0.5h-2.1l-0.2,1.4h1.8L57.4,33.3z"/>
	<path class="st1" d="M59.5,33.3h-0.5l-0.3,1.9H58l0.7-4.3h0.5L59,32.9h0.4l1.8-1.9h0.7l-2,2.1l1.3,2.2h-0.6L59.5,33.3z"/>
	<path class="st1" d="M64.5,33.3h-1.8l-0.3,1.5h2.1l-0.1,0.5h-2.6l0.7-4.3h2.6l-0.1,0.5H63l-0.2,1.4h1.8L64.5,33.3z"/>
	<path class="st1" d="M66,33.6l-0.3,1.7h-0.6l0.7-4.3l1.4,0c0.4,0,0.8,0.1,1,0.4s0.3,0.5,0.3,0.9c0,0.4-0.2,0.7-0.5,1
		c-0.3,0.2-0.7,0.4-1.1,0.4L66,33.6z M66,33.1l0.9,0c0.3,0,0.5-0.1,0.7-0.2s0.3-0.4,0.3-0.6c0-0.2,0-0.4-0.1-0.6
		c-0.1-0.1-0.3-0.2-0.6-0.2l-1,0L66,33.1z"/>
	<path class="st1" d="M72.1,33.9c-0.1,0.4-0.3,0.8-0.6,1c-0.3,0.3-0.7,0.4-1.1,0.4c-0.3,0-0.5-0.1-0.7-0.2c-0.2-0.1-0.4-0.3-0.5-0.5
		S69,34.1,69,33.8c0-0.2,0-0.3,0-0.5l0-0.4c0.1-0.6,0.3-1.1,0.7-1.5c0.4-0.4,0.8-0.6,1.3-0.5c0.4,0,0.7,0.1,1,0.4s0.4,0.6,0.4,1
		h-0.5c0-0.6-0.3-0.9-0.7-1l-0.1,0c-0.4,0-0.7,0.1-0.9,0.4c-0.2,0.3-0.4,0.7-0.5,1.2l-0.1,0.4l0,0.3c0,0.4,0.1,0.6,0.2,0.9
		s0.3,0.3,0.6,0.3c0.3,0,0.5-0.1,0.7-0.2s0.3-0.4,0.4-0.7L72.1,33.9z"/>
	<path class="st1" d="M74.1,33.3h-0.5l-0.3,1.9h-0.6l0.7-4.3H74l-0.3,1.9H74l1.8-1.9h0.7l-2,2.1l1.3,2.2h-0.6L74.1,33.3z"/>
	<path class="st1" d="M78.9,34.1h-1.7l-0.6,1.1H76l2.3-4.3h0.5l0.8,4.3h-0.5L78.9,34.1z M77.4,33.7h1.4l-0.4-2L77.4,33.7z"/>
	<path class="st1" d="M82.4,35.3l0.3-1.7h-0.9l-1.1,1.7H80l1.3-1.8c-0.2-0.1-0.4-0.3-0.5-0.5s-0.1-0.4-0.1-0.7c0-0.4,0.2-0.7,0.5-1
		s0.7-0.4,1.1-0.4l1.4,0L83,35.3H82.4z M81.2,32.3c0,0.2,0,0.4,0.1,0.6s0.3,0.2,0.6,0.2l0.8,0l0.3-1.7l-0.7,0
		c-0.3,0-0.5,0.1-0.7,0.2C81.4,31.8,81.3,32,81.2,32.3z"/>
	<path class="st1" d="M86.9,33.3h-0.5L86,35.3h-0.6l0.7-4.3h0.5l-0.3,1.9h0.4l1.8-1.9h0.7l-2,2.1l1.3,2.2H88L86.9,33.3z"/>
	<path class="st1" d="M90.7,35.3c-0.3,0-0.5-0.1-0.7-0.2s-0.4-0.3-0.5-0.6c-0.1-0.2-0.2-0.5-0.2-0.8c0-0.2,0-0.5,0.1-0.9
		s0.2-0.7,0.3-0.9s0.4-0.5,0.6-0.7c0.3-0.2,0.7-0.3,1-0.3c0.4,0,0.7,0.2,1,0.4c0.2,0.3,0.4,0.7,0.4,1.1c0,0.2,0,0.5-0.1,0.8
		c0,0.3-0.1,0.6-0.3,0.9c-0.1,0.3-0.3,0.5-0.5,0.7C91.6,35.2,91.2,35.3,90.7,35.3z M92.2,32.6c0-0.4-0.1-0.7-0.2-0.9
		s-0.4-0.3-0.7-0.3c-0.3,0-0.5,0.1-0.7,0.2c-0.2,0.1-0.4,0.4-0.5,0.7c-0.1,0.3-0.2,0.7-0.3,1.1l0,0.2c0,0.4,0.1,0.7,0.2,0.9
		s0.4,0.3,0.6,0.3c0.4,0,0.7-0.1,0.9-0.4c0.2-0.3,0.4-0.7,0.5-1.2C92.2,33,92.2,32.8,92.2,32.6z"/>
	<path class="st1" d="M96.3,35.3h-0.6l0.3-2h-2.1l-0.3,2h-0.6l0.7-4.3h0.6l-0.3,1.8h2.1l0.3-1.8h0.6L96.3,35.3z"/>
	<path class="st1" d="M100.8,31.4h-1.3l-0.7,3.8h-0.5l0.7-3.8h-1.3l0.1-0.5h3.2L100.8,31.4z"/>
	<path class="st1" d="M102.2,35.3c-0.3,0-0.5-0.1-0.7-0.2s-0.4-0.3-0.5-0.6c-0.1-0.2-0.2-0.5-0.2-0.8c0-0.2,0-0.5,0.1-0.9
		s0.2-0.7,0.3-0.9s0.4-0.5,0.6-0.7c0.3-0.2,0.7-0.3,1-0.3c0.4,0,0.7,0.2,1,0.4c0.2,0.3,0.4,0.7,0.4,1.1c0,0.2,0,0.5-0.1,0.8
		c0,0.3-0.1,0.6-0.3,0.9c-0.1,0.3-0.3,0.5-0.5,0.7C103.1,35.2,102.7,35.3,102.2,35.3z M103.7,32.6c0-0.4-0.1-0.7-0.2-0.9
		s-0.4-0.3-0.7-0.3c-0.3,0-0.5,0.1-0.7,0.2c-0.2,0.1-0.4,0.4-0.5,0.7c-0.1,0.3-0.2,0.7-0.3,1.1l0,0.2c0,0.4,0.1,0.7,0.2,0.9
		s0.4,0.3,0.6,0.3c0.4,0,0.7-0.1,0.9-0.4c0.2-0.3,0.4-0.7,0.5-1.2C103.7,33,103.7,32.8,103.7,32.6z"/>
	<path class="st1" d="M105.5,33.6l-0.3,1.7h-0.6l0.7-4.3l1.4,0c0.4,0,0.8,0.1,1,0.4s0.3,0.5,0.3,0.9c0,0.4-0.2,0.7-0.5,1
		c-0.3,0.2-0.7,0.4-1.1,0.4L105.5,33.6z M105.6,33.1l0.9,0c0.3,0,0.5-0.1,0.7-0.2s0.3-0.4,0.3-0.6c0-0.2,0-0.4-0.1-0.6
		c-0.1-0.1-0.3-0.2-0.6-0.2l-1,0L105.6,33.1z"/>
	<path class="st1" d="M110.5,34.1h-1.7l-0.6,1.1h-0.6l2.3-4.3h0.5l0.8,4.3h-0.5L110.5,34.1z M109,33.7h1.4l-0.4-2L109,33.7z"/>
</g>
</svg>
